<svg xmlns="http://www.w3.org/2000/svg" xmlns:xlink="http://www.w3.org/1999/xlink" viewBox="0 0 432.35 165.01"><defs><style>.cls-1{fill:#1d1d1b;}.cls-2{isolation:isolate;}.cls-3{clip-path:url(#clip-path);}</style><clipPath id="clip-path"><path class="cls-1" d="M154.52,32l.74,12.49a4.38,4.38,0,0,1-1.75,3.29,21.74,21.74,0,0,1-7.19,4,74.23,74.23,0,0,1-11.95,3.22,140.58,140.58,0,0,1-15.06,2c-5.34.42-10.71.59-16.11.48a119.63,119.63,0,0,1-14.53-1.06A46.14,46.14,0,0,1,78.37,54q-3.91-1.55-4.71-3.48a2.71,2.71,0,0,1-.2-.84l-.74-12.49a2.78,2.78,0,0,0,.2.84c.54,1.29,2.1,2.45,4.71,3.48A45.65,45.65,0,0,0,87.93,44,117.5,117.5,0,0,0,102.46,45q8.1.15,16.11-.48a140.24,140.24,0,0,0,15.06-2,75.29,75.29,0,0,0,12-3.22,21.9,21.9,0,0,0,7.2-4A4.4,4.4,0,0,0,154.52,32Z"/></clipPath></defs><g id="Capa_2" data-name="Capa 2"><g id="Capa_1-2" data-name="Capa 1"><path class="cls-1" d="M0,78.21V1.83H34.54q15,0,23,6.62t7.93,19.1q0,8.13-4,13.41a15.47,15.47,0,0,1-10.77,6.15l20.4,31.1H40.28L26.92,53v25.2ZM26.92,21.5V36.42H31.2a8.71,8.71,0,0,0,6-1.91,7,7,0,0,0,2.11-5.45,7.31,7.31,0,0,0-2.11-5.61,8.58,8.58,0,0,0-6-1.95Z"/><g class="cls-2"><path class="cls-1" d="M154.32,31.17c.54,1.29,0,2.68-1.54,4.15a21.9,21.9,0,0,1-7.2,4,75.29,75.29,0,0,1-12,3.22,140.24,140.24,0,0,1-15.06,2q-8,.63-16.11.48A117.5,117.5,0,0,1,87.93,44a45.65,45.65,0,0,1-10.3-2.5c-2.61-1-4.17-2.19-4.71-3.48s0-2.67,1.56-4.15a22.19,22.19,0,0,1,7.19-4.06,70.64,70.64,0,0,1,11.81-3.18,136.06,136.06,0,0,1,15-2q8-.63,16.22-.47a118.09,118.09,0,0,1,14.59,1.06,46.51,46.51,0,0,1,10.32,2.48Q153.51,29.22,154.32,31.17Zm-34.69,6.3q4.47-1,6.28-2.66T125.48,32q-2.27-1.11-7.82-1.22a44,44,0,0,0-10.08.88c-3,.66-5.12,1.55-6.33,2.69s-1,2.07.49,2.79,4.16,1.13,7.86,1.2a43.41,43.41,0,0,0,10-.86"/><g class="cls-2"><path class="cls-1" d="M154.52,32l.74,12.49a4.38,4.38,0,0,1-1.75,3.29,21.74,21.74,0,0,1-7.19,4,74.23,74.23,0,0,1-11.95,3.22,140.58,140.58,0,0,1-15.06,2c-5.34.42-10.71.59-16.11.48a119.63,119.63,0,0,1-14.53-1.06A46.14,46.14,0,0,1,78.37,54q-3.91-1.55-4.71-3.48a2.71,2.71,0,0,1-.2-.84l-.74-12.49a2.78,2.78,0,0,0,.2.84c.54,1.29,2.1,2.45,4.71,3.48A45.65,45.65,0,0,0,87.93,44,117.5,117.5,0,0,0,102.46,45q8.1.15,16.11-.48a140.24,140.24,0,0,0,15.06-2,75.29,75.29,0,0,0,12-3.22,21.9,21.9,0,0,0,7.2-4A4.4,4.4,0,0,0,154.52,32Z"/><g class="cls-3"><g class="cls-2"><path class="cls-1" d="M154.52,32l.74,12.49a2.47,2.47,0,0,1,0,.47l-.73-12.49a2.48,2.48,0,0,0,0-.47"/><path class="cls-1" d="M154.51,32.5,155.24,45a2.85,2.85,0,0,1-.14.63l-.74-12.5a3.3,3.3,0,0,0,.15-.62"/><path class="cls-1" d="M154.36,33.12l.74,12.5a4.21,4.21,0,0,1-.29.61l-.74-12.49a3.87,3.87,0,0,0,.29-.62"/><path class="cls-1" d="M154.07,33.74l.74,12.49a7,7,0,0,1-.42.64l-.74-12.49a7,7,0,0,0,.42-.64"/><path class="cls-1" d="M153.65,34.38l.74,12.49a8.25,8.25,0,0,1-.58.65L153.07,35a8.25,8.25,0,0,0,.58-.65"/><path class="cls-1" d="M153.07,35l.74,12.49c-.09.1-.19.19-.3.29a5.3,5.3,0,0,1-.43.38l-.74-12.49.44-.38.29-.29"/><path class="cls-1" d="M152.34,35.7l.74,12.49c-.25.22-.53.43-.82.64l-.74-12.49c.29-.21.57-.42.82-.64"/><path class="cls-1" d="M151.52,36.34l.74,12.49c-.29.21-.6.42-.92.62L150.6,37c.32-.21.63-.41.92-.62"/><path class="cls-1" d="M150.6,37l.74,12.49c-.33.2-.68.41-1.05.6l-.74-12.49q.55-.3,1-.6"/><path class="cls-1" d="M149.55,37.56l.74,12.49c-.38.21-.78.41-1.2.61l-.74-12.49c.42-.2.82-.4,1.2-.61"/><path class="cls-1" d="M148.35,38.17l.74,12.49c-.45.22-.93.43-1.42.64l-.74-12.49c.49-.21,1-.42,1.42-.64"/><path class="cls-1" d="M146.93,38.81l.74,12.49c-.44.18-.89.36-1.35.53l-.44.16-.74-12.49.44-.16c.46-.17.92-.35,1.35-.53"/><path class="cls-1" d="M145.14,39.5,145.88,52q-1.08.4-2.28.78l-.74-12.49q1.2-.37,2.28-.78"/><path class="cls-1" d="M142.86,40.28l.74,12.49c-1,.31-2,.61-3.16.91l-.74-12.5c1.11-.29,2.16-.59,3.16-.9"/><path class="cls-1" d="M139.7,41.18l.74,12.5c-1.46.38-3,.74-4.66,1.08L135,42.27c1.65-.34,3.2-.7,4.66-1.09"/><path class="cls-1" d="M135,42.27l.74,12.49-1.41.29c-2.61.5-5.32.92-8.13,1.28l-.74-12.49c2.81-.36,5.52-.78,8.13-1.28l1.41-.29"/><path class="cls-1" d="M125.5,43.84l.74,12.49c-1,.13-2,.25-3.09.35l-.74-12.49c1-.11,2.07-.22,3.09-.35"/><path class="cls-1" d="M122.41,44.19l.74,12.49c-.78.09-1.56.16-2.35.23l-.74-12.49,2.35-.23"/><path class="cls-1" d="M120.06,44.42l.74,12.49-1.49.13-.64.05-.74-12.49.64-.05,1.49-.13"/><path class="cls-1" d="M117.93,44.6l.74,12.49-2,.14-.74-12.49,2-.14"/><path class="cls-1" d="M115.9,44.74l.74,12.49-2,.11-.74-12.49,2-.11"/><path class="cls-1" d="M113.88,44.85l.74,12.49-2.06.1-.74-12.5c.69,0,1.37,0,2.06-.09"/><path class="cls-1" d="M111.82,44.94l.74,12.5-2.14.06L109.68,45l2.14-.07"/><path class="cls-1" d="M109.68,45l.74,12.49-2.22,0-.74-12.49,2.22,0"/><path class="cls-1" d="M107.46,45.05l.74,12.49h-2.32l-.74-12.49h2.32"/><path class="cls-1" d="M105.14,45.06l.74,12.49-2.41,0L102.73,45l2.41,0"/><path class="cls-1" d="M102.73,45l.74,12.49h-.27L101,57.47,100.24,45q1.1,0,2.22.06h.27"/><path class="cls-1" d="M100.24,45l.74,12.5-2.37-.1-.74-12.49q1.17.06,2.37.09"/><path class="cls-1" d="M97.87,44.88l.74,12.49-2.29-.13-.74-12.49,2.29.13"/><path class="cls-1" d="M95.58,44.75l.74,12.49-2.24-.17-.74-12.49,2.24.17"/><path class="cls-1" d="M93.34,44.58l.74,12.49-2.26-.22-.74-12.49,2.26.22"/><path class="cls-1" d="M91.08,44.36l.74,12.49-2.34-.28-.74-12.49,2.34.28"/><path class="cls-1" d="M88.74,44.08l.74,12.49-.81-.11L87,56.19,86.23,43.7l1.7.26.81.12"/><path class="cls-1" d="M86.23,43.7,87,56.19c-1-.17-2-.35-2.89-.55l-.74-12.49c.92.2,1.88.38,2.89.55"/><path class="cls-1" d="M83.34,43.15l.74,12.49A36,36,0,0,1,78.37,54q-3.91-1.55-4.71-3.48a2.71,2.71,0,0,1-.2-.84l-.74-12.49a2.78,2.78,0,0,0,.2.84c.54,1.29,2.1,2.45,4.71,3.48a36,36,0,0,0,5.71,1.69"/></g></g></g></g><path class="cls-1" d="M221,49.84a35.46,35.46,0,0,1-6.17,3.4,21,21,0,0,1-8.06,1.7q-6.34,0-10.2-3.74c-10.88.62-21.11,1.22-30.38,1.81a37.26,37.26,0,0,0,3.36,7.67,40.69,40.69,0,0,0,15.31,14.76A37.9,37.9,0,0,0,194.18,79a45.78,45.78,0,0,0,10.75,1.25,44.93,44.93,0,0,0,9-.91,50.36,50.36,0,0,0,9-2.74l.83-26.89.06-1.86C222.82,48.57,221.89,49.23,221,49.84ZM214.4,1A45.73,45.73,0,0,0,189.05,2.9a38.4,38.4,0,0,0-21.76,21.41c-.35.86-.67,1.74-.95,2.62l30.81,1.56A14.73,14.73,0,0,1,207.28,25a19.8,19.8,0,0,1,8.25,1.77,25.16,25.16,0,0,1,4.77,2.9l2.89.14V3.86A44.16,44.16,0,0,0,214.4,1Z"/><path class="cls-1" d="M292.24,46.17c-9.67.47-19.47,1-29.23,1.46L280.74,78.2H314ZM279.64,1.82l-16.06,30,27.9,1.41L310.74,1.82ZM235.3,49.08V78.2h26.92V47.68C253.16,48.14,244.15,48.61,235.3,49.08Zm0-47.26V30.41l26.92,1.36V1.82Z"/><path class="cls-1" d="M343.87,57.5v-8h21.91V42.63c-14.7.69-31.33,1.48-48.83,2.33V78.2h51.7V57.5Zm24.16-35V1.82H317V34.53L365.78,37V29.9H343.87V22.54Z"/><path class="cls-1" d="M374.33,1.82v25h15.3V38.2l27.43,1.38V26.82h15.29v-25Zm15.3,39.7V78.2h27.43V40.27Z"/><path class="cls-1" d="M0,163V86.6H32.82q17.31,0,25.33,6.68t8,21.18q0,13.52-7.2,19.75T36.1,140.44H27.49V163Zm27.6-55.15v12.73h4.28a9.49,9.49,0,0,0,6-1.64A5.6,5.6,0,0,0,40,114.25a5.67,5.67,0,0,0-2.14-4.72,9.31,9.31,0,0,0-5.94-1.7Z"/><path class="cls-1" d="M74.82,128V86.6h27.44v41.63q0,7.26,1.72,10c1.15,1.83,3.11,2.74,5.9,2.74s4.71-.94,5.89-2.82,1.77-5.18,1.77-9.91V86.6H145V128a69.52,69.52,0,0,1-1.07,13.41,24.83,24.83,0,0,1-3.42,8.82,30,30,0,0,1-12.52,11,41.45,41.45,0,0,1-18.1,3.8,41.59,41.59,0,0,1-18.16-3.8,30,30,0,0,1-12.52-11,24.46,24.46,0,0,1-3.34-8.71A71,71,0,0,1,74.82,128Z"/><path class="cls-1" d="M215.42,116.91a27.64,27.64,0,0,0-7.67-5.37,19.64,19.64,0,0,0-8.24-1.78,14.56,14.56,0,0,0-10.83,4.15c-2.73,2.77-4.09,6.44-4.09,11s1.3,8.06,3.91,10.74,6.1,4,10.49,4a21,21,0,0,0,8.06-1.7,40.83,40.83,0,0,0,8.94-5.4l-.88,28.75a50.46,50.46,0,0,1-9,2.74,44.76,44.76,0,0,1-9,.91,45.26,45.26,0,0,1-10.75-1.25,37.73,37.73,0,0,1-9.34-3.55,40.76,40.76,0,0,1-15.31-14.76,40,40,0,0,1-5.19-20.5,41.92,41.92,0,0,1,3-15.87,38.42,38.42,0,0,1,21.75-21.41,44.53,44.53,0,0,1,16.2-2.9,43.6,43.6,0,0,1,17.95,3.86Z"/><path class="cls-1" d="M227.52,163V86.6h26.92v32.55L271.87,86.6H303L279.9,124.21,306.2,163H273l-18.53-31.93V163Z"/><path class="cls-1" d="M309.17,163V86.6h51.08v20.71H336.1v7.36H358v19.56H336.1v8h24.78V163Z"/><path class="cls-1" d="M381.85,163V111.59H366.56v-25h58v25H409.29V163Z"/></g></g></svg>