<svg xmlns="http://www.w3.org/2000/svg" xmlns:xlink="http://www.w3.org/1999/xlink" viewBox="0 0 299.13 135.42"><defs><style>.cls-1{fill:#1d1d1b;}.cls-2{isolation:isolate;}.cls-3{clip-path:url(#clip-path);}.cls-4,.cls-5{fill:none;stroke:#1d1d1b;stroke-linecap:round;stroke-linejoin:round;}.cls-4{stroke-width:5.32px;}.cls-5{stroke-width:3.55px;}</style><clipPath id="clip-path"><path class="cls-1" d="M274,53.54l1.31,22.15q.17,2.78-3.09,5.84-4.14,3.89-12.77,7.13a132.13,132.13,0,0,1-21.18,5.7,246.82,246.82,0,0,1-26.7,3.53Q197.34,99,183,98.75a213.18,213.18,0,0,1-25.76-1.89A81.53,81.53,0,0,1,139,92.42c-4.63-1.83-7.4-3.88-8.35-6.17a4.43,4.43,0,0,1-.35-1.5l-1.31-22.14a4.43,4.43,0,0,0,.35,1.49q1.41,3.44,8.35,6.17a81.53,81.53,0,0,0,18.26,4.44,209.17,209.17,0,0,0,25.76,1.89q14.37.27,28.56-.86a244.35,244.35,0,0,0,26.7-3.53,132.13,132.13,0,0,0,21.18-5.7q8.64-3.24,12.77-7.13C273,57.34,274.07,55.4,274,53.54Z"/></clipPath></defs><g id="Capa_2" data-name="Capa 2"><g id="Capa_1-2" data-name="Capa 1"><path class="cls-1" d="M0,135.42V0H61.24q26.64,0,40.7,11.75T116,45.6q0,14.43-7.08,23.78a27.49,27.49,0,0,1-19.1,10.91L126,135.42H71.41L47.73,90.74v44.68ZM47.73,34.87V61.33h7.59Q62.25,61.33,66,58t3.75-9.66q0-6.48-3.75-9.95T55.32,34.87Z"/><path class="cls-1" d="M273.6,52q1.44,3.45-2.73,7.36T258.1,66.51a132.13,132.13,0,0,1-21.18,5.7,244.35,244.35,0,0,1-26.7,3.53q-14.19,1.14-28.56.86a209.17,209.17,0,0,1-25.76-1.89,81.53,81.53,0,0,1-18.26-4.44q-6.94-2.73-8.35-6.17c-.94-2.28,0-4.73,2.77-7.36s7.05-5,12.74-7.19a125.33,125.33,0,0,1,20.94-5.64,240.65,240.65,0,0,1,26.68-3.55q14.13-1.12,28.77-.84a214.33,214.33,0,0,1,25.86,1.88,82.6,82.6,0,0,1,18.29,4.4Q272.16,48.56,273.6,52ZM212.1,63.2q7.92-1.71,11.13-4.72t-.76-5q-4-1.95-13.86-2.15a77.7,77.7,0,0,0-17.87,1.56c-5.34,1.17-9.08,2.75-11.23,4.77s-1.85,3.66.87,5,7.38,2,13.94,2.12A77.3,77.3,0,0,0,212.1,63.2"/><g class="cls-2"><path class="cls-1" d="M274,53.54l1.31,22.15q.17,2.78-3.09,5.84-4.14,3.89-12.77,7.13a132.13,132.13,0,0,1-21.18,5.7,246.82,246.82,0,0,1-26.7,3.53Q197.34,99,183,98.75a213.18,213.18,0,0,1-25.76-1.89A81.53,81.53,0,0,1,139,92.42c-4.63-1.83-7.4-3.88-8.35-6.17a4.43,4.43,0,0,1-.35-1.5l-1.31-22.14a4.43,4.43,0,0,0,.35,1.49q1.41,3.44,8.35,6.17a81.53,81.53,0,0,0,18.26,4.44,209.17,209.17,0,0,0,25.76,1.89q14.37.27,28.56-.86a244.35,244.35,0,0,0,26.7-3.53,132.13,132.13,0,0,0,21.18-5.7q8.64-3.24,12.77-7.13C273,57.34,274.07,55.4,274,53.54Z"/><g class="cls-3"><g class="cls-2"><path class="cls-1" d="M274,53.54l1.31,22.15a4.06,4.06,0,0,1,0,.85l-1.31-22.15a4,4,0,0,0,0-.85"/><path class="cls-1" d="M273.93,54.39l1.31,22.15a5,5,0,0,1-.26,1.1l-1.31-22.15a5,5,0,0,0,.26-1.1"/><path class="cls-1" d="M273.67,55.49,275,77.64a7.17,7.17,0,0,1-.51,1.1l-1.31-22.15a7.17,7.17,0,0,0,.51-1.1"/><path class="cls-1" d="M273.16,56.59l1.31,22.15a10,10,0,0,1-.75,1.12l-1.31-22.15a10,10,0,0,0,.75-1.12"/><path class="cls-1" d="M272.41,57.71l1.31,22.15a14.87,14.87,0,0,1-1,1.16l-1.31-22.15a14.87,14.87,0,0,0,1-1.16"/><path class="cls-1" d="M271.39,58.87,272.7,81l-.52.51c-.25.23-.5.46-.77.68L270.1,60.06c.27-.22.52-.45.77-.68l.52-.51"/><path class="cls-1" d="M270.1,60.06l1.31,22.15c-.45.38-.94.76-1.46,1.13l-1.31-22.15c.52-.37,1-.74,1.46-1.13"/><path class="cls-1" d="M268.64,61.19,270,83.34c-.51.37-1.06.73-1.63,1.09L267,62.29c.58-.36,1.13-.73,1.64-1.1"/><path class="cls-1" d="M267,62.29l1.32,22.14c-.59.37-1.21.72-1.86,1.08l-1.31-22.15c.65-.35,1.27-.71,1.85-1.07"/><path class="cls-1" d="M265.15,63.36l1.31,22.15c-.67.36-1.39.72-2.13,1.08L263,64.44q1.11-.52,2.13-1.08"/><path class="cls-1" d="M263,64.44l1.31,22.15c-.8.38-1.64.75-2.52,1.12L260.5,65.56c.88-.36,1.72-.74,2.52-1.12"/><path class="cls-1" d="M260.5,65.56l1.31,22.15c-.77.32-1.57.64-2.4,1l-.76.29L257.34,66.8l.76-.29c.83-.31,1.63-.62,2.4-1"/><path class="cls-1" d="M257.34,66.8,258.65,89c-1.29.47-2.64.93-4,1.37l-1.31-22.15c1.41-.44,2.76-.9,4-1.37"/><path class="cls-1" d="M253.29,68.17l1.31,22.15c-1.77.56-3.64,1.09-5.61,1.61l-1.31-22.15q3-.77,5.61-1.61"/><path class="cls-1" d="M247.68,69.78,249,91.93c-2.58.67-5.33,1.32-8.25,1.92l-1.31-22.14q4.38-.92,8.25-1.93"/><path class="cls-1" d="M239.43,71.71l1.31,22.14-2.51.51q-6.94,1.33-14.41,2.27l-1.31-22.15q7.45-.93,14.41-2.27l2.51-.5"/><path class="cls-1" d="M222.51,74.48l1.31,22.15c-1.81.23-3.63.44-5.48.63L217,75.11c1.85-.19,3.67-.4,5.48-.63"/><path class="cls-1" d="M217,75.11l1.31,22.15c-1.38.15-2.77.28-4.17.41l-1.31-22.15c1.4-.13,2.79-.26,4.17-.41"/><path class="cls-1" d="M212.86,75.52l1.31,22.15-2.64.22L210.4,98l-1.31-22.15,1.13-.09,2.64-.22"/><path class="cls-1" d="M209.09,75.83,210.4,98l-3.6.25-1.31-22.15,3.6-.25"/><path class="cls-1" d="M205.49,76.08l1.31,22.15-3.58.2-1.31-22.15c1.2-.06,2.39-.12,3.58-.2"/><path class="cls-1" d="M201.91,76.28l1.31,22.15c-1.22.06-2.44.12-3.66.16l-1.31-22.14c1.22,0,2.44-.1,3.66-.17"/><path class="cls-1" d="M198.25,76.45l1.31,22.14c-1.26,0-2.53.09-3.79.12l-1.31-22.14,3.79-.12"/><path class="cls-1" d="M194.46,76.57l1.31,22.14c-1.31,0-2.63.06-3.94.07l-1.31-22.14,3.94-.07"/><path class="cls-1" d="M190.52,76.64l1.31,22.14c-1.37,0-2.73,0-4.1,0l-1.31-22.15c1.37,0,2.73,0,4.1,0"/><path class="cls-1" d="M186.42,76.65l1.31,22.15c-1.43,0-2.86,0-4.29,0l-1.31-22.15c1.43,0,2.86,0,4.29,0"/><path class="cls-1" d="M182.13,76.61l1.31,22.15H183l-3.94-.1L177.72,76.5c1.3,0,2.61.08,3.94.1h.47"/><path class="cls-1" d="M177.72,76.5,179,98.65l-4.19-.17-1.32-22.15c1.38.07,2.78.12,4.2.17"/><path class="cls-1" d="M173.52,76.33l1.32,22.15c-1.38-.07-2.73-.15-4.06-.24L169.47,76.1c1.33.09,2.68.16,4.05.23"/><path class="cls-1" d="M169.47,76.1l1.31,22.14c-1.35-.09-2.68-.19-4-.3L165.49,75.8c1.3.11,2.63.21,4,.3"/><path class="cls-1" d="M165.49,75.8l1.31,22.14c-1.36-.11-2.7-.24-4-.38l-1.31-22.15c1.3.14,2.64.27,4,.39"/><path class="cls-1" d="M161.49,75.41l1.31,22.15c-1.42-.16-2.8-.32-4.15-.5l-1.31-22.15c1.35.18,2.73.35,4.15.5"/><path class="cls-1" d="M157.34,74.91l1.31,22.15-1.44-.2c-1-.15-2-.31-3-.47l-1.31-22.15c1,.17,2,.32,3,.47l1.44.2"/><path class="cls-1" d="M152.89,74.24l1.31,22.15q-2.7-.45-5.12-1l-1.32-22.15q2.43.52,5.13,1"/><path class="cls-1" d="M147.76,73.26l1.32,22.15a63.72,63.72,0,0,1-10.13-3c-4.63-1.83-7.4-3.88-8.35-6.17a4.43,4.43,0,0,1-.35-1.5l-1.31-22.14a4.43,4.43,0,0,0,.35,1.49q1.41,3.44,8.35,6.17a63.89,63.89,0,0,0,10.12,3"/></g></g></g><path class="cls-4" d="M213.39,116s40.77,1.78,74.46-19.5"/><path class="cls-5" d="M251.32,125.29s26-1.35,46-16.89"/></g></g></svg>